<?xml version="1.0" encoding="utf-8"?>
<svg xmlns="http://www.w3.org/2000/svg" width="24.01" height="24.007" viewBox="0 0 24.01 24.007">
  <g id="fast-forward-double-right-arrows-symbol" transform="translate(0.001 -0.035)">
    <g id="_x35__11_" transform="translate(-0.001 0.035)">
      <g id="Group_16533" data-name="Group 16533" transform="translate(0 0)">
        <path id="Path_33757" data-name="Path 33757" d="M23.419,10.613,13.431.626a2.017,2.017,0,0,0-2.853,2.853l8.56,8.56-8.56,8.56a2.017,2.017,0,0,0,2.853,2.853l9.987-9.987A2.015,2.015,0,0,0,23.419,10.613Zm-12.009-.6L3.481,1.651a1.967,1.967,0,0,0-2.884,0A2.231,2.231,0,0,0,.6,4.69l6.488,6.838L.6,18.365A2.231,2.231,0,0,0,.6,21.4a1.967,1.967,0,0,0,2.884,0l7.929-8.357A2.231,2.231,0,0,0,11.41,10.008Z" transform="translate(0.001 -0.035)" fill="#95b836"/>
      </g>
    </g>
  </g>
</svg>
